# xmcd
#
# Track frame offsets:
# 182
# 14335
# 27467
# 40842
# 82007
# 93682
# 105597
# 116350
# 129162
# 143122
# 154707
# 169070
# 183357
# 196180
# 209912
# 222222
#
# Disc length: 3134 seconds
#
#
# Revision: 2
# Processed by: cddbd v1.5.1PL0 Copyright (c) Steve Scherf et al.
# Submitted via: FreeRIP 2.942 
#
DISCID=dc0c3c10
DTITLE=Various Artist - Kings Of The Blues
DYEAR=1993
DGENRE=Blues
TTITLE0=Muddy Waters - Rollin' Stone
TTITLE1=Elmore James - Dust My Broom
TTITLE2=John Lee Hooker - One Bourbon,One Scotch,One Beer
TTITLE3=Albert King - I Got The Blues
TTITLE4=Sonny Boy Williamson - Bring It On Home
TTITLE5=Buddy Guy - Ten Years Ago
TTITLE6=Jimmy Reed - Baby What You Want Me To Do
TTITLE7=T-Bone Walker - Stormy Monday Blues
TTITLE8=Howlin' Wolf - Smokestack Lightning
TTITLE9=Little Walter - My Babe
TTITLE10=Otis Rush - So Many Roads
TTITLE11=Lowell Fulson - Reconsider Baby
TTITLE12=Jimmy Witherspoon - When The Lights Go Out
TTITLE13=Memphis Slim - Guess I'm A Fool
TTITLE14=Otis Spann - I'm In Love With You Baby
TTITLE15=Jimmy Rogers - Ludella
EXTD=
EXTT0=
EXTT1=
EXTT2=
EXTT3=
EXTT4=
EXTT5=
EXTT6=
EXTT7=
EXTT8=
EXTT9=
EXTT10=
EXTT11=
EXTT12=
EXTT13=
EXTT14=
EXTT15=
PLAYORDER=
